<?xml version="1.0" standalone="no"?>
<!-- Generator: Adobe Fireworks 10, Export SVG Extension by Aaron Beall (http://fireworks.abeall.com) . Version: 0.6.1  -->
<!DOCTYPE svg PUBLIC "-//W3C//DTD SVG 1.1//EN" "http://www.w3.org/Graphics/SVG/1.1/DTD/svg11.dtd">
<svg id="Untitled-Page%201" viewBox="0 0 256 256" style="background-color:#ffffff00" version="1.1"
	xmlns="http://www.w3.org/2000/svg" xmlns:xlink="http://www.w3.org/1999/xlink" xml:space="preserve"
	x="0px" y="0px" width="256px" height="256px"
>
	<defs>
		<linearGradient id="gradient1" x1="50%" y1="0%" x2="50%" y2="100%">
			<stop stop-color="#ff0000" stop-opacity="1" offset="0%"/>
			<stop stop-color="#800000" stop-opacity="1" offset="100%"/>
		</linearGradient>
		<linearGradient id="gradient2" x1="50%" y1="0%" x2="50%" y2="100%">
			<stop stop-color="#5cff26" stop-opacity="1" offset="0%"/>
			<stop stop-color="#2e8013" stop-opacity="1" offset="100%"/>
		</linearGradient>
	</defs>
	<g id="Layer%201">
		<path d="M 248.7853 0.2982 C 247.8125 -0.0262 246.3534 0.2982 246.0291 0.2982 C 244.2457 0.2982 242.4623 -0.0262 240.841 1.2714 C 234.8423 5.6507 223.3312 19.1129 222.3585 19.1129 C 222.0342 19.1129 218.4674 16.3556 216.5219 15.3824 C 214.5763 14.247 212.3065 13.4361 210.5231 12.6251 C 209.2261 12.1385 207.9291 11.6519 206.7942 11.3275 C 205.4971 11.0031 204.038 10.5165 203.0652 10.3543 C 201.2818 9.8677 199.1742 9.5434 197.5529 9.3812 C 195.4452 9.219 191.392 9.0568 191.0678 9.0568 C 186.6903 9.0568 182.1507 9.5434 178.0975 10.5165 C 174.6928 11.3275 170.4775 12.6251 167.235 14.247 C 163.6682 15.869 159.2907 18.3019 155.886 21.0593 C 153.7783 22.6812 151.6707 24.4654 149.7251 26.7361 C 145.0234 32.0886 134.9715 41.8203 134.6472 41.8203 C 134.1609 41.8203 127.0272 34.1971 123.2983 30.791 C 122.0013 29.6556 119.2451 29.3313 118.1102 29.3313 C 112.9221 29.3313 107.734 33.224 107.734 39.3874 C 107.734 41.0094 108.0583 43.1179 109.1932 44.5777 C 116.1647 52.5253 125.406 61.1217 133.3502 69.0692 C 122.974 79.4498 112.76 89.9925 102.3838 100.0487 C 99.9519 102.1572 98.6548 104.2658 98.3306 106.2121 L 98.3306 110.4292 C 98.3306 111.889 101.5732 116.4304 103.6808 117.2414 C 105.4642 118.0524 106.5991 118.3768 108.2204 118.3768 C 109.8417 118.3768 111.463 118.0524 113.0842 117.0792 C 113.7327 116.7548 114.3813 116.2682 115.0298 115.7817 C 125.8923 104.9145 136.7549 94.0474 147.6175 83.3425 L 172.5852 108.4828 C 161.5605 119.5122 150.2115 130.5415 139.349 141.733 C 138.3762 142.544 137.4034 145.9501 137.4034 147.5721 C 137.4034 152.9245 141.7809 157.7904 147.4554 157.7904 C 148.7524 157.7904 151.8328 156.9794 152.8056 156.1684 C 164.1545 146.1123 175.3414 133.9476 186.8524 122.5939 C 194.7967 130.3793 202.9031 139.4623 211.0095 146.2745 C 212.4687 147.5721 214.5763 147.8964 216.3597 147.8964 C 221.5478 147.8964 226.4117 143.355 226.4117 137.8403 C 226.4117 136.5427 225.7631 133.7854 224.9525 132.8122 C 222.5206 129.5683 214.0899 121.6207 214.0899 121.2963 C 214.0899 120.8097 225.601 109.7804 231.2755 104.1036 C 232.7346 102.6438 233.8695 101.184 235.0044 99.7243 C 236.7878 97.2913 238.4091 94.8584 239.7061 92.4255 C 241.0032 90.1547 241.9759 87.884 242.7866 85.6132 C 243.9215 82.6937 244.7321 79.7742 245.2185 77.0168 C 245.867 73.6107 246.3534 69.3936 246.3534 66.1497 C 246.3534 58.3643 244.7321 49.7679 241.0032 42.1447 C 239.7061 39.3874 236.4636 34.0349 236.4636 33.7105 C 236.4636 33.224 246.8398 23.1678 252.0279 17.9775 C 252.8385 17.0044 253.9734 15.7068 254.6219 14.8958 C 256.0811 12.6251 255.9189 11.9763 255.9189 9.8677 C 255.9189 5.8129 254.4598 2.2445 248.7853 0.2982 ZM 58.4471 122.9183 C 49.8543 115.1329 46.7739 108.1585 39.6403 108.1585 C 34.1279 108.1585 29.102 111.7268 29.102 117.8902 C 29.102 119.1878 29.4262 121.6207 30.399 122.9183 C 33.6415 126.9732 41.7479 134.272 41.7479 134.7586 C 41.7479 135.083 35.2628 140.922 32.1824 144.1659 C 28.2913 147.8964 23.9139 151.7891 20.9956 155.844 C 19.3743 157.7904 17.753 160.2233 16.6181 162.3319 C 15.6453 163.9538 14.5104 166.0624 13.8619 167.8465 C 12.5649 170.7661 11.43 174.1722 10.7815 177.2539 C 10.133 180.0112 9.8087 183.093 9.4845 186.0125 L 9.4845 193.6357 C 9.4845 199.9613 13.5377 213.0992 16.7802 218.1273 C 17.5909 219.2626 19.3743 221.8578 19.3743 222.1822 C 19.3743 222.6687 7.5389 233.6981 2.1887 239.5371 C 1.0538 240.5103 0.7296 242.1322 0.2432 243.2676 L 0.2432 248.7823 C 0.2432 249.9176 2.9994 253.3238 3.81 253.8104 C 5.2692 254.9457 6.7283 255.5945 8.0253 255.7567 C 8.5117 255.9189 9.4845 255.9189 9.9709 255.9189 C 10.2951 255.9189 11.2679 255.9189 11.9164 255.7567 C 13.0513 255.5945 14.5104 255.2701 15.4832 254.2969 C 21.482 248.7823 32.8309 236.942 33.3173 236.942 C 33.6415 236.942 38.1811 240.0237 40.613 241.1591 C 42.2343 242.1322 44.0177 242.9432 45.8011 243.4298 C 46.936 243.9164 48.3952 244.403 49.6922 244.7274 C 51.4756 245.3762 53.5833 245.7006 55.3667 246.0249 C 56.988 246.3493 58.9335 246.6737 60.7169 246.8359 C 64.1216 246.9981 65.2565 246.9981 68.6612 246.8359 C 80.9829 245.7006 93.9531 241.3213 105.6263 229.6432 C 110.6523 224.4529 120.7042 214.2346 121.1906 214.2346 C 121.677 214.2346 128.9728 222.8309 133.026 225.2639 C 133.6745 225.7505 136.7549 226.5614 137.7277 226.5614 C 142.9158 226.5614 147.7796 222.02 147.7796 216.5053 C 147.7796 214.5589 147.4554 212.2882 145.8341 210.6662 C 133.1881 197.204 119.7315 184.2283 106.9234 171.4148 L 97.8442 162.3319 L 86.9816 151.4648 L 74.0114 138.4891 C 68.8233 133.2988 63.7973 127.7841 58.4471 122.9183 Z" fill="url(#gradient1)"/>
		<path visibility="hidden" d="M 255.5 9.5 C 255.5 4.5 254.5 0.5 245.5 0.5 L 241.5 0.5 C 225.5 16.5 194.5 48.5 192.5 48.5 C 187.5 48.5 179.5 38.5 160.5 38.5 C 141.5 38.5 121.5 49.5 104.5 70.5 C 94.5 61.5 94.5 58.5 88.5 58.5 C 81.5 58.5 79.5 62.5 79.5 68.5 C 79.5 71.5 78.5 73.5 82.5 77.5 C 115.5 109.5 147.5 143.5 180.5 174.5 C 181.5 176.5 184.5 177.5 187.5 177.5 C 192.5 177.5 197.5 172.5 197.5 167.5 C 197.5 159.5 190.5 157.5 185.5 150.5 C 207.5 130.5 217.5 113.5 217.5 95.5 C 217.5 92.5 215.5 80.5 212.5 74.5 C 211.5 70.5 207.5 65.5 207.5 63.5 C 207.5 60.5 239.5 30.5 254.5 14.5 C 255.5 13.5 255.5 12.5 255.5 9.5 ZM 87.5 92.5 C 75.5 80.5 75.5 79.5 68.5 79.5 C 62.5 79.5 58.5 81.5 58.5 88.5 C 58.5 95.5 65.5 97.5 70.5 105.5 C 47.5 124.5 38.5 141.5 38.5 160.5 C 38.5 162.5 39.5 174.5 42.5 181.5 C 43.5 185.5 48.5 189.5 48.5 192.5 C 48.5 194.5 16.5 225.5 0.5 241.5 L 0.5 245.5 C 0.5 250.5 0.5 255.5 9.5 255.5 C 12.5 255.5 13.5 255.5 14.5 254.5 C 30.5 239.5 60.5 207.5 63.5 207.5 C 67.5 207.5 75.5 217.5 95.5 217.5 C 113.5 217.5 133.5 205.5 151.5 185.5 C 160.5 193.5 160.5 197.5 167.5 197.5 C 172.5 197.5 177.5 192.5 177.5 186.5 C 177.5 184.5 176.5 181.5 174.5 180.5 C 146.5 150.5 115.5 121.5 87.5 92.5 Z" fill="url(#gradient2)"/>
	</g>
</svg>