<?xml version="1.0" standalone="no"?>
<!-- Generator: Adobe Fireworks 10, Export SVG Extension by Aaron Beall (http://fireworks.abeall.com) . Version: 0.6.1  -->
<!DOCTYPE svg PUBLIC "-//W3C//DTD SVG 1.1//EN" "http://www.w3.org/Graphics/SVG/1.1/DTD/svg11.dtd">
<svg id="HealthMonitor.fw-Page%201" viewBox="0 0 512 512" style="background-color:#ffffff00" version="1.1"
	xmlns="http://www.w3.org/2000/svg" xmlns:xlink="http://www.w3.org/1999/xlink" xml:space="preserve"
	x="0px" y="0px" width="512px" height="512px"
>
	<defs>
		<linearGradient id="gradient1" x1="50%" y1="0%" x2="50%" y2="100%">
			<stop stop-color="#000000" stop-opacity="1" offset="0%"/>
			<stop stop-color="#777777" stop-opacity="1" offset="100%"/>
		</linearGradient>
		<linearGradient id="gradient2" x1="50%" y1="0%" x2="50%" y2="100%">
			<stop stop-color="#777777" stop-opacity="1" offset="0%"/>
			<stop stop-color="#000000" stop-opacity="1" offset="100%"/>
		</linearGradient>
		<linearGradient id="gradient3" x1="100%" y1="0.7813%" x2="0%" y2="0.7813%">
			<stop stop-color="#777777" stop-opacity="1" offset="0%"/>
			<stop stop-color="#000000" stop-opacity="1" offset="100%"/>
		</linearGradient>
		<linearGradient id="gradient4" x1="0%" y1="0%" x2="101.5625%" y2="0%">
			<stop stop-color="#777777" stop-opacity="1" offset="0%"/>
			<stop stop-color="#000000" stop-opacity="1" offset="100%"/>
		</linearGradient>
		<radialGradient id="gradient5" cx="100%" cy="100%" r="98.4052%">
			<stop stop-color="#777777" stop-opacity="1" offset="0%"/>
			<stop stop-color="#000000" stop-opacity="1" offset="100%"/>
		</radialGradient>
		<radialGradient id="gradient6" cx="0%" cy="100%" r="98.4051%">
			<stop stop-color="#777777" stop-opacity="1" offset="0%"/>
			<stop stop-color="#000000" stop-opacity="1" offset="100%"/>
		</radialGradient>
		<radialGradient id="gradient7" cx="100%" cy="0%" r="98.4052%">
			<stop stop-color="#777777" stop-opacity="1" offset="0%"/>
			<stop stop-color="#000000" stop-opacity="1" offset="100%"/>
		</radialGradient>
		<radialGradient id="gradient8" cx="0%" cy="0%" r="98.4051%">
			<stop stop-color="#777777" stop-opacity="1" offset="0%"/>
			<stop stop-color="#000000" stop-opacity="1" offset="100%"/>
		</radialGradient>
	</defs>
	<g id="Layer%201">
		<rect x="29" y="128" width="455" height="256" fill="#000000"/>
		<path d="M 29.5661 295.1683 L 176.6128 295.1695 L 205.022 323.369 L 217.8555 259.1677 L 233.5078 353.1447 L 259.4622 301.2072 L 277.5579 319.3139 L 313.3893 265.673 L 328.1296 295.1695 L 482.9207 295.1683 L 483.3151 277.1827 L 339.2384 277.1866 L 315.6346 229.9545 L 274.784 291.1053 L 254.5376 270.8485 L 242.1501 295.6415 L 219.4623 159.4349 L 193.9519 287.0502 L 184.0183 277.1866 L 29.1717 277.1827 L 29.5661 295.1683 Z" fill="#00ff00"/>
		<path d="M 48 64 C 21.49 64 0 85.49 0 112 L 0 128 L 512 128 L 512 112 C 512 85.49 490.51 64 464 64 L 48 64 Z" fill="url(#gradient1)"/>
		<path d="M 0 384 L 0 400 C 0 426.51 21.49 448 48 448 L 464 448 C 490.51 448 512 426.51 512 400 L 512 384 L 0 384 Z" fill="url(#gradient2)"/>
		<rect x="0" y="128" width="64" height="256" fill="url(#gradient3)"/>
		<rect x="448" y="128" width="64" height="256" fill="url(#gradient4)"/>
		<path d="M 48 64 C 21.49 64 0 85.49 0 112 L 0 128 L 64 128 L 64 64 L 48 64 Z" fill="url(#gradient5)"/>
		<path d="M 464 64 C 490.51 64 512 85.49 512 112 L 512 128 L 448 128 L 448 64 L 464 64 Z" fill="url(#gradient6)"/>
		<path d="M 48 448 C 21.49 448 0 426.51 0 400 L 0 384 L 64 384 L 64 448 L 48 448 Z" fill="url(#gradient7)"/>
		<path d="M 464 448 C 490.51 448 512 426.51 512 400 L 512 384 L 448 384 L 448 448 L 464 448 Z" fill="url(#gradient8)"/>
	</g>
</svg>