<?xml version="1.0" encoding="UTF-8" standalone="no"?>
<!-- Generator: Adobe Fireworks 10, Export SVG Extension by Aaron Beall (http://fireworks.abeall.com) . Version: 0.6.1  -->

<svg
   xmlns:dc="http://purl.org/dc/elements/1.1/"
   xmlns:cc="http://creativecommons.org/ns#"
   xmlns:rdf="http://www.w3.org/1999/02/22-rdf-syntax-ns#"
   xmlns:svg="http://www.w3.org/2000/svg"
   xmlns="http://www.w3.org/2000/svg"
   xmlns:xlink="http://www.w3.org/1999/xlink"
   xmlns:sodipodi="http://sodipodi.sourceforge.net/DTD/sodipodi-0.dtd"
   xmlns:inkscape="http://www.inkscape.org/namespaces/inkscape"
   id="NoiseSenoid.fw-Page%201"
   viewBox="0 0 256 256"
   style="background-color:#ffffff00"
   version="1.1"
   xml:space="preserve"
   x="0px"
   y="0px"
   width="256px"
   height="256px"
   sodipodi:docname="NoiseSenoid.svg"
   inkscape:version="0.92.2 (5c3e80d, 2017-08-06)"><metadata
     id="metadata4736"><rdf:RDF><cc:Work
         rdf:about=""><dc:format>image/svg+xml</dc:format><dc:type
           rdf:resource="http://purl.org/dc/dcmitype/StillImage" /><dc:title></dc:title></cc:Work></rdf:RDF></metadata><sodipodi:namedview
     pagecolor="#ffffff"
     bordercolor="#666666"
     borderopacity="1"
     objecttolerance="10"
     gridtolerance="10"
     guidetolerance="10"
     inkscape:pageopacity="0"
     inkscape:pageshadow="2"
     inkscape:window-width="1366"
     inkscape:window-height="715"
     id="namedview4734"
     showgrid="false"
     inkscape:zoom="1.84375"
     inkscape:cx="40.280747"
     inkscape:cy="117.53844"
     inkscape:window-x="-8"
     inkscape:window-y="-8"
     inkscape:window-maximized="1"
     inkscape:current-layer="NoiseSenoid.fw-Page%201" /><defs
     id="defs4724"><linearGradient
       inkscape:collect="always"
       id="linearGradient5292"><stop
         style="stop-color:#00ff00;stop-opacity:1;"
         offset="0"
         id="stop5288" /><stop
         style="stop-color:#000000;stop-opacity:1"
         offset="1"
         id="stop5290" /></linearGradient><linearGradient
       id="gradient1"
       x1="34.524145"
       y1="63.028508"
       x2="34.524145"
       y2="179.20065"
       gradientTransform="scale(0.92689007,1.0788766)"
       gradientUnits="userSpaceOnUse"><stop
         stop-color="#000000"
         stop-opacity="1"
         offset="0%"
         id="stop4714" /><stop
         stop-color="#ff0000"
         stop-opacity="1"
         offset="100%"
         id="stop4716" /></linearGradient><linearGradient
       id="gradient2"
       x1="794.728"
       y1="7.3314391"
       x2="794.728"
       y2="36.657196"
       gradientTransform="scale(0.17049858,5.8651513)"
       gradientUnits="userSpaceOnUse"><stop
         stop-color="#ffffff"
         stop-opacity="1"
         offset="0%"
         id="stop4719" /><stop
         stop-color="#000000"
         stop-opacity="1"
         offset="100%"
         id="stop4721" /></linearGradient><linearGradient
       inkscape:collect="always"
       xlink:href="#linearGradient5292"
       id="linearGradient5294"
       x1="188.5"
       y1="71"
       x2="188.5"
       y2="170.85593"
       gradientUnits="userSpaceOnUse" /></defs><g
     id="g5299"
     transform="matrix(1.2012641,0,0,1.2012641,-25.683554,-25.963066)"><path
       d="m 109,94 c 0,2.7615 2.2385,5 5,5 2.7615,0 5,-2.2385 5,-5 0,-2.7615 -2.2385,-5 -5,-5 -2.7615,0 -5,2.2385 -5,5 z m 5,75 c 0,2.7615 2.2385,5 5,5 2.7615,0 5,-2.2385 5,-5 0,-2.7615 -2.2385,-5 -5,-5 -2.7615,0 -5,2.2385 -5,5 z m -44,10 c 0,2.7615 2.2385,5 5,5 2.7615,0 5,-2.2385 5,-5 0,-2.7615 -2.2385,-5 -5,-5 -2.7615,0 -5,2.2385 -5,5 z M 90,82 c 0,2.7615 2.2385,5 5,5 2.7615,0 5,-2.2385 5,-5 0,-2.7615 -2.2385,-5 -5,-5 -2.7615,0 -5,2.2385 -5,5 z m -35,29 c 0,2.7615 2.2385,5 5,5 2.7615,0 5,-2.2385 5,-5 0,-2.7615 -2.2385,-5 -5,-5 -2.7615,0 -5,2.2385 -5,5 z m -5,47 c 0,2.7615 2.2385,5 5,5 2.7615,0 5,-2.2385 5,-5 0,-2.7615 -2.2385,-5 -5,-5 -2.7615,0 -5,2.2385 -5,5 z M 26.2096,117.502 42.0685,153.751 55.5,133.085 69.6487,154.8552 81.9,99.715 l 13.1252,96.9063 14.3398,-71.6863 12.8671,30.3357 9.4691,-17.5854 1.1852,-2.2012 -4.4023,-2.3705 -1.1853,2.2011 L 122.77,143.73 107.6373,108.0654 95.975,166.38 83.098,71.2859 67.35,142.145 55.5001,123.9129 42.93,143.25 29.7883,113.2076 l -4.5807,2.0041 z"
       id="path4726"
       style="fill:url(#gradient1)"
       inkscape:connector-curvature="0" /><path
       inkscape:connector-curvature="0"
       id="path4728"
       d="m 188.5,71 c -1.5836,0 -3.07334,0.816149 -4.05664,1.890625 -0.9833,1.074476 -1.63484,2.379148 -2.17969,3.880859 -1.08969,3.003424 -1.72349,6.885674 -2.16797,11.488282 -0.88896,9.205214 -0.91601,21.234484 -0.92382,33.238284 -0.008,12.00379 0.006,23.9802 -0.73829,32.79101 -0.37189,4.40541 -0.95705,8.03689 -1.70703,10.29883 -0.37499,1.13097 -0.80372,1.89943 -1.07422,2.21875 C 175.38185,167.12596 175.48125,167 175.5,167 c -0.20625,0 -0.23992,-0.004 -0.46094,-0.18945 -0.22102,-0.18561 -0.57112,-0.61886 -0.91406,-1.34375 -0.68587,-1.44979 -1.29411,-3.96299 -1.69141,-7.06641 -0.79459,-6.20683 -0.87109,-14.79297 -0.93359,-23.41797 -0.0625,-8.625 -0.111,-17.28886 -0.97266,-24.01953 -0.43082,-3.36533 -1.03352,-6.24275 -2.13281,-8.56641 -0.54964,-1.16182 -1.23615,-2.21001 -2.21875,-3.035152 C 165.19319,98.536188 163.85625,98 162.5,98 c -2.27875,0 -4.38281,1.02885 -5.7207,2.5957 -1.33789,1.56686 -2.04894,3.50113 -2.52344,5.60352 -0.949,4.20478 -0.93294,9.28971 -0.94336,14.29492 -0.0104,5.00521 -0.044,9.93196 -0.73633,13.24414 -0.34617,1.65609 -0.86881,2.85906 -1.36328,3.46875 C 150.71842,137.81673 150.42544,138 149.5,138 c -2.45835,0 -3.15747,-0.96184 -3.78516,-2.16016 -0.62769,-1.19832 -0.71679,-2.45898 -0.71679,-2.45898 l -4.9961,0.23828 c 0,0 0.0776,2.23934 1.28321,4.54102 1.20563,2.30168 4.00649,4.83984 8.21484,4.83984 2.24123,0 4.31804,-1.06673 5.59766,-2.64453 1.27962,-1.57781 1.93536,-3.49984 2.37304,-5.59375 0.87537,-4.18782 0.8314,-9.26107 0.8418,-14.25586 0.0104,-4.99479 0.0786,-9.90986 0.82227,-13.20508 0.37185,-1.64761 0.91731,-2.83834 1.44726,-3.45898 C 161.11198,103.22115 161.48707,103 162.5,103 c 0.20625,0 0.23992,0.004 0.46094,0.18945 0.22102,0.18561 0.57112,0.61886 0.91406,1.34375 0.68587,1.44979 1.29411,3.96299 1.69141,7.06641 0.79459,6.20683 0.87109,14.79297 0.93359,23.41797 0.0625,8.625 0.111,17.28886 0.97266,24.01953 0.43082,3.36533 1.03352,6.24275 2.13281,8.56641 0.54964,1.16182 1.23615,2.21001 2.21875,3.03515 0.98259,0.82514 2.31953,1.36133 3.67578,1.36133 1.58125,0 3.04607,-0.87596 3.9668,-1.96289 0.92072,-1.08693 1.51049,-2.38097 2.00586,-3.875 0.99074,-2.98806 1.55353,-6.85658 1.9414,-11.45117 0.77574,-9.18919 0.75,-21.21278 0.75782,-33.20899 0.008,-11.9962 0.0511,-23.96693 0.90039,-32.761716 0.42466,-4.397392 1.07748,-8.015142 1.89257,-10.261718 0.40755,-1.123289 0.8624,-1.881117 1.16602,-2.212891 C 188.43448,75.933851 188.41173,76 188.5,76 c 0.16616,0 0.17197,-0.02774 0.44727,0.244141 0.27529,0.271877 0.69623,0.900862 1.08203,1.873047 0.7716,1.944369 1.40042,5.153438 1.79882,9.072265 0.79681,7.837654 0.79427,18.559807 0.8125,29.314457 0.0182,10.75464 0.0556,21.54116 1.02344,29.84765 0.48394,4.15325 1.16917,7.67941 2.375,10.45117 0.60292,1.38589 1.3427,2.60933 2.4043,3.57813 1.0616,0.9688 2.53581,1.61914 4.05664,1.61914 2.33565,0 4.48417,-1.08284 5.83008,-2.71289 1.3459,-1.63006 2.04817,-3.63744 2.51367,-5.83008 0.931,-4.38528 0.87503,-9.71769 0.84375,-14.97265 -0.0313,-5.25497 -0.0403,-10.43311 0.64844,-13.93946 0.34437,-1.75317 0.87704,-3.04042 1.39258,-3.69726 C 214.24405,120.19081 214.54808,120 215.5,120 c 3.02652,0 5.18403,0.0528 6.33984,0.35742 1.15582,0.30458 1.36465,0.42756 1.88282,1.68555 C 224.75899,124.55894 225,131.95073 225,146.5 h 5 c 0,-14.54393 0.28606,-21.6506 -1.6543,-26.36133 -0.97018,-2.35536 -3.00449,-4.02813 -5.23242,-4.61523 C 220.88535,114.93633 218.52009,115 215.5,115 c -2.29808,0 -4.41593,1.12169 -5.70312,2.76172 -1.2872,1.64003 -1.93813,3.63403 -2.36719,5.81836 -0.85813,4.36865 -0.77341,9.69051 -0.74219,14.93554 0.0312,5.24504 0.006,10.41263 -0.73438,13.90235 -0.37043,1.74486 -0.92988,3.01873 -1.48046,3.68555 C 203.92208,156.77034 203.53935,157 202.5,157 c -0.27083,0 -0.36867,-0.0215 -0.6875,-0.3125 -0.31883,-0.29096 -0.76739,-0.91518 -1.1875,-1.88086 -0.84022,-1.93136 -1.54058,-5.12395 -1.99609,-9.0332 -0.91103,-7.81851 -0.97006,-18.53199 -0.98829,-29.27735 -0.0182,-10.74535 0.003,-21.523197 -0.83984,-29.810543 -0.42126,-4.143673 -1.02827,-7.653354 -2.12305,-10.412109 C 194.13035,74.89406 193.46125,73.675389 192.46094,72.6875 191.46062,71.699611 190.00572,71 188.5,71 Z"
       style="color:#000000;font-style:normal;font-variant:normal;font-weight:normal;font-stretch:normal;font-size:medium;line-height:normal;font-family:sans-serif;font-variant-ligatures:normal;font-variant-position:normal;font-variant-caps:normal;font-variant-numeric:normal;font-variant-alternates:normal;font-feature-settings:normal;text-indent:0;text-align:start;text-decoration:none;text-decoration-line:none;text-decoration-style:solid;text-decoration-color:#000000;letter-spacing:normal;word-spacing:normal;text-transform:none;writing-mode:lr-tb;direction:ltr;text-orientation:mixed;dominant-baseline:auto;baseline-shift:baseline;text-anchor:start;white-space:normal;shape-padding:0;clip-rule:nonzero;display:inline;overflow:visible;visibility:visible;opacity:1;isolation:auto;mix-blend-mode:normal;color-interpolation:sRGB;color-interpolation-filters:linearRGB;solid-color:#000000;solid-opacity:1;vector-effect:none;fill:url(#linearGradient5294);fill-opacity:1;fill-rule:nonzero;stroke:none;stroke-width:5;stroke-linecap:butt;stroke-linejoin:miter;stroke-miterlimit:4;stroke-dasharray:none;stroke-dashoffset:0;stroke-opacity:1;color-rendering:auto;image-rendering:auto;shape-rendering:auto;text-rendering:auto;enable-background:accumulate" /><path
       d="m 133,45.5 v 167 2.5 h 5 V 212.5 45.5 43 h -5 z"
       id="path4730"
       style="fill:url(#gradient2)"
       inkscape:connector-curvature="0" /></g></svg>